<?xml version="1.0" encoding="utf-8"?>
<!-- Generator: Adobe Illustrator 26.0.0, SVG Export Plug-In . SVG Version: 6.00 Build 0)  -->
<svg version="1.1" id="Calque_1" xmlns="http://www.w3.org/2000/svg" xmlns:xlink="http://www.w3.org/1999/xlink" x="0px" y="0px"
	 viewBox="0 0 700 50" style="enable-background:new 0 0 700 50;" xml:space="preserve">
<style type="text/css">
	.st0{fill:#020203;}
</style>
<g>
	
		<rect x="365.89" y="20.78" transform="matrix(0.7071 -0.7071 0.7071 0.7071 90.7131 269.0162)" class="st0" width="8.43" height="8.43"/>
	
		<rect x="384.76" y="18.59" transform="matrix(0.7071 -0.7071 0.7071 0.7071 96.8951 283.925)" class="st0" width="12.82" height="12.82"/>
	
		<rect x="409.98" y="20.78" transform="matrix(0.7071 -0.7071 0.7071 0.7071 103.6236 300.1867)" class="st0" width="8.43" height="8.43"/>
	
		<rect x="430.8" y="18.59" transform="matrix(0.759 -0.651 0.651 0.759 89.072 290.6659)" class="st0" width="12.82" height="12.82"/>
	
		<rect x="302.83" y="20.78" transform="matrix(0.7071 -0.7071 0.7071 0.7071 72.2547 224.4377)" class="st0" width="8.43" height="8.43"/>
	
		<rect x="277.62" y="18.59" transform="matrix(0.7071 -0.7071 0.7071 0.7071 65.5124 208.1603)" class="st0" width="12.82" height="12.82"/>
	
		<rect x="256.79" y="20.78" transform="matrix(0.7072 -0.707 0.707 0.7072 58.7528 191.862)" class="st0" width="8.43" height="8.43"/>
	
		<rect x="231.58" y="18.59" transform="matrix(0.759 -0.6511 0.6511 0.759 41.0719 160.9678)" class="st0" width="12.82" height="12.82"/>
	
		<rect x="326.11" y="12.15" transform="matrix(0.7071 -0.7071 0.7071 0.7071 81.6002 247.0034)" class="st0" width="25.71" height="25.71"/>
	<polygon class="st0" points="440.35,21.11 698.09,24.19 698.09,25.81 440.35,28.89 	"/>
	<polygon class="st0" points="234.6,28.89 1.91,25.81 1.91,24.19 234.6,21.11 	"/>
</g>
</svg>
